<svg width="257" height="74" viewBox="0 0 257 74" fill="none" xmlns="http://www.w3.org/2000/svg">
<path d="M26.9179 0C20.845 0 15.1003 2.10965 10.5046 5.51754C9.02736 6.65351 7.71429 7.95176 6.40122 9.41228C2.46201 14.1184 0 20.1228 0 26.614C0 40.0833 10.1763 51.2807 23.307 53.0658C32.4985 44.6272 29.7082 31.1579 28.231 28.2368L34.6322 25.4781C37.9149 32.4561 40.0486 54.5263 15.921 65.2368L20.3526 73.8377H20.5167C39.7204 67.0219 54.1641 49.9825 54.1641 28.5614C54 13.9561 41.8541 0 26.9179 0Z" fill="#2DABFF"/>
<path d="M71.5824 12.6364V49H64.0185V12.6364H71.5824ZM83.9185 49.5149C82.1784 49.5149 80.6278 49.2131 79.2665 48.6094C77.9052 47.9938 76.8281 47.0883 76.035 45.8928C75.2537 44.6854 74.8631 43.1821 74.8631 41.3828C74.8631 39.8677 75.1413 38.5952 75.6976 37.5653C76.254 36.5355 77.0115 35.7069 77.9703 35.0795C78.9292 34.4522 80.0182 33.9787 81.2374 33.6591C82.4685 33.3395 83.7587 33.1146 85.1081 32.9844C86.6943 32.8187 87.9727 32.6648 88.9434 32.5227C89.914 32.3688 90.6183 32.1439 91.0563 31.848C91.4943 31.5521 91.7132 31.1141 91.7132 30.5341V30.4276C91.7132 29.303 91.3581 28.433 90.6479 27.8175C89.9495 27.2019 88.9552 26.8942 87.665 26.8942C86.3037 26.8942 85.2206 27.196 84.4157 27.7997C83.6107 28.3916 83.0781 29.1373 82.8176 30.0369L75.8219 29.4688C76.177 27.8116 76.8754 26.3793 77.9171 25.1719C78.9587 23.9527 80.3023 23.0175 81.9476 22.3665C83.6048 21.7036 85.5224 21.3722 87.7005 21.3722C89.2156 21.3722 90.6657 21.5497 92.0506 21.9048C93.4474 22.2599 94.6844 22.8104 95.7615 23.5561C96.8506 24.3018 97.7087 25.2607 98.3361 26.4325C98.9635 27.5926 99.2772 28.9834 99.2772 30.6051V49H92.1039V45.218H91.8908C91.4528 46.0703 90.8669 46.822 90.133 47.473C89.3991 48.1122 88.5172 48.6153 87.4874 48.9822C86.4576 49.3374 85.2679 49.5149 83.9185 49.5149ZM86.0847 44.2947C87.1974 44.2947 88.1799 44.0758 89.0321 43.6378C89.8844 43.188 90.5532 42.5843 91.0385 41.8267C91.5239 41.0691 91.7665 40.2109 91.7665 39.2521V36.358C91.5298 36.5118 91.2043 36.6539 90.79 36.7841C90.3875 36.9025 89.9318 37.0149 89.4228 37.1214C88.9138 37.2161 88.4048 37.3049 87.8958 37.3878C87.3868 37.4588 86.9251 37.5239 86.5108 37.5831C85.623 37.7133 84.8477 37.9205 84.1848 38.2045C83.522 38.4886 83.007 38.8733 82.6401 39.3587C82.2731 39.8321 82.0897 40.424 82.0897 41.1342C82.0897 42.1641 82.4625 42.9512 83.2083 43.4957C83.9659 44.0284 84.9247 44.2947 86.0847 44.2947ZM111.209 33.233V49H103.645V21.7273H110.854V26.5391H111.174C111.778 24.9529 112.79 23.6982 114.21 22.7749C115.631 21.8397 117.353 21.3722 119.377 21.3722C121.271 21.3722 122.922 21.7865 124.331 22.6151C125.739 23.4437 126.834 24.6274 127.616 26.1662C128.397 27.6932 128.787 29.5161 128.787 31.6349V49H121.224V32.9844C121.235 31.3153 120.809 30.0133 119.945 29.0781C119.081 28.1312 117.891 27.6577 116.376 27.6577C115.358 27.6577 114.459 27.8767 113.677 28.3146C112.908 28.7526 112.304 29.3918 111.866 30.2322C111.44 31.0608 111.221 32.0611 111.209 33.233ZM145.536 59.7955C143.086 59.7955 140.984 59.4581 139.233 58.7834C137.493 58.1205 136.108 57.215 135.078 56.0668C134.048 54.9186 133.379 53.6283 133.071 52.196L140.067 51.255C140.28 51.7995 140.618 52.3085 141.079 52.782C141.541 53.2554 142.15 53.6342 142.908 53.9183C143.677 54.2143 144.613 54.3622 145.713 54.3622C147.359 54.3622 148.714 53.9598 149.779 53.1548C150.857 52.3617 151.395 51.0301 151.395 49.1598V44.1705H151.076C150.744 44.928 150.247 45.6442 149.584 46.3189C148.921 46.9936 148.069 47.544 147.027 47.9702C145.986 48.3963 144.743 48.6094 143.299 48.6094C141.251 48.6094 139.386 48.1359 137.706 47.1889C136.037 46.2301 134.705 44.7682 133.711 42.8033C132.728 40.8265 132.237 38.3288 132.237 35.3104C132.237 32.2209 132.74 29.6404 133.746 27.5689C134.752 25.4974 136.09 23.9467 137.759 22.9169C139.44 21.8871 141.28 21.3722 143.281 21.3722C144.808 21.3722 146.086 21.6326 147.116 22.1534C148.146 22.6624 148.975 23.3016 149.602 24.071C150.241 24.8286 150.732 25.5743 151.076 26.3082H151.36V21.7273H158.87V49.2663C158.87 51.5864 158.302 53.5277 157.166 55.0902C156.029 56.6527 154.455 57.8246 152.443 58.6058C150.442 59.3989 148.14 59.7955 145.536 59.7955ZM145.696 42.9276C146.915 42.9276 147.945 42.6257 148.785 42.022C149.637 41.4065 150.288 40.5305 150.738 39.3942C151.2 38.246 151.431 36.8729 151.431 35.2749C151.431 33.6768 151.206 32.2919 150.756 31.12C150.306 29.9363 149.655 29.0189 148.803 28.3679C147.951 27.7169 146.915 27.3913 145.696 27.3913C144.453 27.3913 143.405 27.7287 142.553 28.4034C141.701 29.0663 141.056 29.9896 140.618 31.1733C140.18 32.357 139.961 33.7242 139.961 35.2749C139.961 36.8492 140.18 38.2105 140.618 39.3587C141.067 40.495 141.712 41.3769 142.553 42.0043C143.405 42.6198 144.453 42.9276 145.696 42.9276ZM180.879 37.3878V21.7273H188.443V49H181.181V44.0462H180.897C180.281 45.6442 179.257 46.9285 177.825 47.8991C176.404 48.8698 174.67 49.3551 172.623 49.3551C170.8 49.3551 169.196 48.9408 167.811 48.1122C166.426 47.2836 165.343 46.1058 164.561 44.5788C163.792 43.0518 163.401 41.223 163.39 39.0923V21.7273H170.953V37.7429C170.965 39.3527 171.397 40.6252 172.25 41.5604C173.102 42.4955 174.244 42.9631 175.676 42.9631C176.588 42.9631 177.44 42.7559 178.233 42.3416C179.026 41.9155 179.666 41.2881 180.151 40.4595C180.648 39.6309 180.891 38.607 180.879 37.3878ZM192.993 49V21.7273H200.557V49H192.993ZM196.793 18.2116C195.668 18.2116 194.704 17.8388 193.899 17.093C193.106 16.3355 192.709 15.4299 192.709 14.3764C192.709 13.3348 193.106 12.4411 193.899 11.6953C194.704 10.9377 195.668 10.5589 196.793 10.5589C197.917 10.5589 198.876 10.9377 199.669 11.6953C200.474 12.4411 200.877 13.3348 200.877 14.3764C200.877 15.4299 200.474 16.3355 199.669 17.093C198.876 17.8388 197.917 18.2116 196.793 18.2116ZM219.782 21.7273V27.4091H202.95V21.7273H219.782ZM206.803 49V19.7564C206.803 17.7796 207.188 16.1401 207.957 14.8381C208.738 13.536 209.804 12.5594 211.153 11.9084C212.502 11.2573 214.035 10.9318 215.752 10.9318C216.912 10.9318 217.971 11.0206 218.93 11.1982C219.901 11.3757 220.623 11.5355 221.096 11.6776L219.747 17.3594C219.451 17.2647 219.084 17.1759 218.646 17.093C218.22 17.0102 217.782 16.9688 217.332 16.9688C216.219 16.9688 215.444 17.2292 215.006 17.75C214.568 18.259 214.349 18.9751 214.349 19.8984V49H206.803ZM227.573 59.2273C226.614 59.2273 225.715 59.1503 224.874 58.9964C224.046 58.8544 223.359 58.6709 222.814 58.446L224.519 52.7997C225.407 53.072 226.206 53.2199 226.916 53.2436C227.638 53.2673 228.26 53.1016 228.78 52.7464C229.313 52.3913 229.745 51.7876 230.077 50.9354L230.52 49.7812L220.737 21.7273H228.692L234.338 41.7557H234.622L240.322 21.7273H248.329L237.729 51.9474C237.22 53.4152 236.528 54.6937 235.652 55.7827C234.788 56.8835 233.693 57.7299 232.367 58.3217C231.041 58.9254 229.443 59.2273 227.573 59.2273Z" fill="#2DABFF"/>
</svg>
